<svg xmlns="http://www.w3.org/2000/svg" width="546" height="578" viewBox="0 0 546 578">
<rect width="100%" height="100%" fill="#ffffff"/>
<text x="273.0" y="28" text-anchor="middle" font-size="20" font-weight="700" fill="#111827">Confusion Matrix</text>
<text x="273.0" y="562" text-anchor="middle" font-size="13" fill="#374151">Predicted label</text>
<text x="22" y="280" transform="rotate(-90 22 280)" text-anchor="middle" font-size="13" fill="#374151">True label</text>
<text x="113.0" y="54" text-anchor="middle" font-size="13" fill="#374151">0</text>
<text x="74" y="96.0" text-anchor="middle" font-size="13" fill="#374151">0</text>
<text x="155.0" y="54" text-anchor="middle" font-size="13" fill="#374151">1</text>
<text x="74" y="138.0" text-anchor="middle" font-size="13" fill="#374151">1</text>
<text x="197.0" y="54" text-anchor="middle" font-size="13" fill="#374151">2</text>
<text x="74" y="180.0" text-anchor="middle" font-size="13" fill="#374151">2</text>
<text x="239.0" y="54" text-anchor="middle" font-size="13" fill="#374151">3</text>
<text x="74" y="222.0" text-anchor="middle" font-size="13" fill="#374151">3</text>
<text x="281.0" y="54" text-anchor="middle" font-size="13" fill="#374151">4</text>
<text x="74" y="264.0" text-anchor="middle" font-size="13" fill="#374151">4</text>
<text x="323.0" y="54" text-anchor="middle" font-size="13" fill="#374151">5</text>
<text x="74" y="306.0" text-anchor="middle" font-size="13" fill="#374151">5</text>
<text x="365.0" y="54" text-anchor="middle" font-size="13" fill="#374151">6</text>
<text x="74" y="348.0" text-anchor="middle" font-size="13" fill="#374151">6</text>
<text x="407.0" y="54" text-anchor="middle" font-size="13" fill="#374151">7</text>
<text x="74" y="390.0" text-anchor="middle" font-size="13" fill="#374151">7</text>
<text x="449.0" y="54" text-anchor="middle" font-size="13" fill="#374151">8</text>
<text x="74" y="432.0" text-anchor="middle" font-size="13" fill="#374151">8</text>
<text x="491.0" y="54" text-anchor="middle" font-size="13" fill="#374151">9</text>
<text x="74" y="474.0" text-anchor="middle" font-size="13" fill="#374151">9</text>
<rect x="92" y="70" width="42" height="42" fill="rgb(83,151,111)" stroke="#e5e7eb"/>
<text x="113.0" y="96.0" text-anchor="middle" font-size="11" fill="#ffffff">172</text>
<rect x="134" y="70" width="42" height="42" fill="rgb(239,248,245)" stroke="#e5e7eb"/>
<rect x="176" y="70" width="42" height="42" fill="rgb(239,248,245)" stroke="#e5e7eb"/>
<rect x="218" y="70" width="42" height="42" fill="rgb(239,248,245)" stroke="#e5e7eb"/>
<rect x="260" y="70" width="42" height="42" fill="rgb(239,248,245)" stroke="#e5e7eb"/>
<rect x="302" y="70" width="42" height="42" fill="rgb(239,248,245)" stroke="#e5e7eb"/>
<rect x="344" y="70" width="42" height="42" fill="rgb(237,246,243)" stroke="#e5e7eb"/>
<text x="365.0" y="96.0" text-anchor="middle" font-size="11" fill="#111827">2</text>
<rect x="386" y="70" width="42" height="42" fill="rgb(238,247,244)" stroke="#e5e7eb"/>
<text x="407.0" y="96.0" text-anchor="middle" font-size="11" fill="#111827">1</text>
<rect x="428" y="70" width="42" height="42" fill="rgb(239,248,245)" stroke="#e5e7eb"/>
<rect x="470" y="70" width="42" height="42" fill="rgb(239,248,245)" stroke="#e5e7eb"/>
<rect x="92" y="112" width="42" height="42" fill="rgb(239,248,245)" stroke="#e5e7eb"/>
<rect x="134" y="112" width="42" height="42" fill="rgb(29,118,65)" stroke="#e5e7eb"/>
<text x="155.0" y="138.0" text-anchor="middle" font-size="11" fill="#ffffff">232</text>
<rect x="176" y="112" width="42" height="42" fill="rgb(238,247,244)" stroke="#e5e7eb"/>
<text x="197.0" y="138.0" text-anchor="middle" font-size="11" fill="#111827">1</text>
<rect x="218" y="112" width="42" height="42" fill="rgb(239,248,245)" stroke="#e5e7eb"/>
<rect x="260" y="112" width="42" height="42" fill="rgb(239,248,245)" stroke="#e5e7eb"/>
<rect x="302" y="112" width="42" height="42" fill="rgb(239,248,245)" stroke="#e5e7eb"/>
<rect x="344" y="112" width="42" height="42" fill="rgb(238,247,244)" stroke="#e5e7eb"/>
<text x="365.0" y="138.0" text-anchor="middle" font-size="11" fill="#111827">1</text>
<rect x="386" y="112" width="42" height="42" fill="rgb(239,248,245)" stroke="#e5e7eb"/>
<rect x="428" y="112" width="42" height="42" fill="rgb(239,248,245)" stroke="#e5e7eb"/>
<rect x="470" y="112" width="42" height="42" fill="rgb(239,248,245)" stroke="#e5e7eb"/>
<rect x="92" y="154" width="42" height="42" fill="rgb(236,246,242)" stroke="#e5e7eb"/>
<text x="113.0" y="180.0" text-anchor="middle" font-size="11" fill="#111827">3</text>
<rect x="134" y="154" width="42" height="42" fill="rgb(239,248,245)" stroke="#e5e7eb"/>
<rect x="176" y="154" width="42" height="42" fill="rgb(57,135,89)" stroke="#e5e7eb"/>
<text x="197.0" y="180.0" text-anchor="middle" font-size="11" fill="#ffffff">201</text>
<rect x="218" y="154" width="42" height="42" fill="rgb(239,248,245)" stroke="#e5e7eb"/>
<rect x="260" y="154" width="42" height="42" fill="rgb(238,247,244)" stroke="#e5e7eb"/>
<text x="281.0" y="180.0" text-anchor="middle" font-size="11" fill="#111827">1</text>
<rect x="302" y="154" width="42" height="42" fill="rgb(239,248,245)" stroke="#e5e7eb"/>
<rect x="344" y="154" width="42" height="42" fill="rgb(237,246,243)" stroke="#e5e7eb"/>
<text x="365.0" y="180.0" text-anchor="middle" font-size="11" fill="#111827">2</text>
<rect x="386" y="154" width="42" height="42" fill="rgb(234,245,241)" stroke="#e5e7eb"/>
<text x="407.0" y="180.0" text-anchor="middle" font-size="11" fill="#111827">5</text>
<rect x="428" y="154" width="42" height="42" fill="rgb(233,244,240)" stroke="#e5e7eb"/>
<text x="449.0" y="180.0" text-anchor="middle" font-size="11" fill="#111827">6</text>
<rect x="470" y="154" width="42" height="42" fill="rgb(238,247,244)" stroke="#e5e7eb"/>
<text x="491.0" y="180.0" text-anchor="middle" font-size="11" fill="#111827">1</text>
<rect x="92" y="196" width="42" height="42" fill="rgb(238,247,244)" stroke="#e5e7eb"/>
<text x="113.0" y="222.0" text-anchor="middle" font-size="11" fill="#111827">1</text>
<rect x="134" y="196" width="42" height="42" fill="rgb(239,248,245)" stroke="#e5e7eb"/>
<rect x="176" y="196" width="42" height="42" fill="rgb(235,245,241)" stroke="#e5e7eb"/>
<text x="197.0" y="222.0" text-anchor="middle" font-size="11" fill="#111827">4</text>
<rect x="218" y="196" width="42" height="42" fill="rgb(72,144,102)" stroke="#e5e7eb"/>
<text x="239.0" y="222.0" text-anchor="middle" font-size="11" fill="#ffffff">184</text>
<rect x="260" y="196" width="42" height="42" fill="rgb(239,248,245)" stroke="#e5e7eb"/>
<rect x="302" y="196" width="42" height="42" fill="rgb(232,244,239)" stroke="#e5e7eb"/>
<text x="323.0" y="222.0" text-anchor="middle" font-size="11" fill="#111827">7</text>
<rect x="344" y="196" width="42" height="42" fill="rgb(238,247,244)" stroke="#e5e7eb"/>
<text x="365.0" y="222.0" text-anchor="middle" font-size="11" fill="#111827">1</text>
<rect x="386" y="196" width="42" height="42" fill="rgb(231,243,238)" stroke="#e5e7eb"/>
<text x="407.0" y="222.0" text-anchor="middle" font-size="11" fill="#111827">8</text>
<rect x="428" y="196" width="42" height="42" fill="rgb(238,247,244)" stroke="#e5e7eb"/>
<text x="449.0" y="222.0" text-anchor="middle" font-size="11" fill="#111827">1</text>
<rect x="470" y="196" width="42" height="42" fill="rgb(238,247,244)" stroke="#e5e7eb"/>
<text x="491.0" y="222.0" text-anchor="middle" font-size="11" fill="#111827">1</text>
<rect x="92" y="238" width="42" height="42" fill="rgb(239,248,245)" stroke="#e5e7eb"/>
<rect x="134" y="238" width="42" height="42" fill="rgb(239,248,245)" stroke="#e5e7eb"/>
<rect x="176" y="238" width="42" height="42" fill="rgb(237,246,243)" stroke="#e5e7eb"/>
<text x="197.0" y="264.0" text-anchor="middle" font-size="11" fill="#111827">2</text>
<rect x="218" y="238" width="42" height="42" fill="rgb(239,248,245)" stroke="#e5e7eb"/>
<rect x="260" y="238" width="42" height="42" fill="rgb(55,134,87)" stroke="#e5e7eb"/>
<text x="281.0" y="264.0" text-anchor="middle" font-size="11" fill="#ffffff">203</text>
<rect x="302" y="238" width="42" height="42" fill="rgb(239,248,245)" stroke="#e5e7eb"/>
<rect x="344" y="238" width="42" height="42" fill="rgb(233,244,240)" stroke="#e5e7eb"/>
<text x="365.0" y="264.0" text-anchor="middle" font-size="11" fill="#111827">6</text>
<rect x="386" y="238" width="42" height="42" fill="rgb(239,248,245)" stroke="#e5e7eb"/>
<rect x="428" y="238" width="42" height="42" fill="rgb(239,248,245)" stroke="#e5e7eb"/>
<rect x="470" y="238" width="42" height="42" fill="rgb(233,244,240)" stroke="#e5e7eb"/>
<text x="491.0" y="264.0" text-anchor="middle" font-size="11" fill="#111827">6</text>
<rect x="92" y="280" width="42" height="42" fill="rgb(237,246,243)" stroke="#e5e7eb"/>
<text x="113.0" y="306.0" text-anchor="middle" font-size="11" fill="#111827">2</text>
<rect x="134" y="280" width="42" height="42" fill="rgb(239,248,245)" stroke="#e5e7eb"/>
<rect x="176" y="280" width="42" height="42" fill="rgb(239,248,245)" stroke="#e5e7eb"/>
<rect x="218" y="280" width="42" height="42" fill="rgb(237,246,243)" stroke="#e5e7eb"/>
<text x="239.0" y="306.0" text-anchor="middle" font-size="11" fill="#111827">2</text>
<rect x="260" y="280" width="42" height="42" fill="rgb(238,247,244)" stroke="#e5e7eb"/>
<text x="281.0" y="306.0" text-anchor="middle" font-size="11" fill="#111827">1</text>
<rect x="302" y="280" width="42" height="42" fill="rgb(86,153,113)" stroke="#e5e7eb"/>
<text x="323.0" y="306.0" text-anchor="middle" font-size="11" fill="#ffffff">169</text>
<rect x="344" y="280" width="42" height="42" fill="rgb(238,247,244)" stroke="#e5e7eb"/>
<text x="365.0" y="306.0" text-anchor="middle" font-size="11" fill="#111827">1</text>
<rect x="386" y="280" width="42" height="42" fill="rgb(238,247,244)" stroke="#e5e7eb"/>
<text x="407.0" y="306.0" text-anchor="middle" font-size="11" fill="#111827">1</text>
<rect x="428" y="280" width="42" height="42" fill="rgb(238,247,244)" stroke="#e5e7eb"/>
<text x="449.0" y="306.0" text-anchor="middle" font-size="11" fill="#111827">1</text>
<rect x="470" y="280" width="42" height="42" fill="rgb(237,246,243)" stroke="#e5e7eb"/>
<text x="491.0" y="306.0" text-anchor="middle" font-size="11" fill="#111827">2</text>
<rect x="92" y="322" width="42" height="42" fill="rgb(236,246,242)" stroke="#e5e7eb"/>
<text x="113.0" y="348.0" text-anchor="middle" font-size="11" fill="#111827">3</text>
<rect x="134" y="322" width="42" height="42" fill="rgb(238,247,244)" stroke="#e5e7eb"/>
<text x="155.0" y="348.0" text-anchor="middle" font-size="11" fill="#111827">1</text>
<rect x="176" y="322" width="42" height="42" fill="rgb(238,247,244)" stroke="#e5e7eb"/>
<text x="197.0" y="348.0" text-anchor="middle" font-size="11" fill="#111827">1</text>
<rect x="218" y="322" width="42" height="42" fill="rgb(239,248,245)" stroke="#e5e7eb"/>
<rect x="260" y="322" width="42" height="42" fill="rgb(238,247,244)" stroke="#e5e7eb"/>
<text x="281.0" y="348.0" text-anchor="middle" font-size="11" fill="#111827">1</text>
<rect x="302" y="322" width="42" height="42" fill="rgb(237,246,243)" stroke="#e5e7eb"/>
<text x="323.0" y="348.0" text-anchor="middle" font-size="11" fill="#111827">2</text>
<rect x="344" y="322" width="42" height="42" fill="rgb(86,153,114)" stroke="#e5e7eb"/>
<text x="365.0" y="348.0" text-anchor="middle" font-size="11" fill="#ffffff">168</text>
<rect x="386" y="322" width="42" height="42" fill="rgb(238,247,244)" stroke="#e5e7eb"/>
<text x="407.0" y="348.0" text-anchor="middle" font-size="11" fill="#111827">1</text>
<rect x="428" y="322" width="42" height="42" fill="rgb(238,247,244)" stroke="#e5e7eb"/>
<text x="449.0" y="348.0" text-anchor="middle" font-size="11" fill="#111827">1</text>
<rect x="470" y="322" width="42" height="42" fill="rgb(239,248,245)" stroke="#e5e7eb"/>
<rect x="92" y="364" width="42" height="42" fill="rgb(238,247,244)" stroke="#e5e7eb"/>
<text x="113.0" y="390.0" text-anchor="middle" font-size="11" fill="#111827">1</text>
<rect x="134" y="364" width="42" height="42" fill="rgb(233,244,240)" stroke="#e5e7eb"/>
<text x="155.0" y="390.0" text-anchor="middle" font-size="11" fill="#111827">6</text>
<rect x="176" y="364" width="42" height="42" fill="rgb(233,244,240)" stroke="#e5e7eb"/>
<text x="197.0" y="390.0" text-anchor="middle" font-size="11" fill="#111827">6</text>
<rect x="218" y="364" width="42" height="42" fill="rgb(238,247,244)" stroke="#e5e7eb"/>
<text x="239.0" y="390.0" text-anchor="middle" font-size="11" fill="#111827">1</text>
<rect x="260" y="364" width="42" height="42" fill="rgb(238,247,244)" stroke="#e5e7eb"/>
<text x="281.0" y="390.0" text-anchor="middle" font-size="11" fill="#111827">1</text>
<rect x="302" y="364" width="42" height="42" fill="rgb(239,248,245)" stroke="#e5e7eb"/>
<rect x="344" y="364" width="42" height="42" fill="rgb(239,248,245)" stroke="#e5e7eb"/>
<rect x="386" y="364" width="42" height="42" fill="rgb(70,143,100)" stroke="#e5e7eb"/>
<text x="407.0" y="390.0" text-anchor="middle" font-size="11" fill="#ffffff">186</text>
<rect x="428" y="364" width="42" height="42" fill="rgb(239,248,245)" stroke="#e5e7eb"/>
<rect x="470" y="364" width="42" height="42" fill="rgb(235,245,241)" stroke="#e5e7eb"/>
<text x="491.0" y="390.0" text-anchor="middle" font-size="11" fill="#111827">4</text>
<rect x="92" y="406" width="42" height="42" fill="rgb(237,246,243)" stroke="#e5e7eb"/>
<text x="113.0" y="432.0" text-anchor="middle" font-size="11" fill="#111827">2</text>
<rect x="134" y="406" width="42" height="42" fill="rgb(237,246,243)" stroke="#e5e7eb"/>
<text x="155.0" y="432.0" text-anchor="middle" font-size="11" fill="#111827">2</text>
<rect x="176" y="406" width="42" height="42" fill="rgb(236,246,242)" stroke="#e5e7eb"/>
<text x="197.0" y="432.0" text-anchor="middle" font-size="11" fill="#111827">3</text>
<rect x="218" y="406" width="42" height="42" fill="rgb(234,245,241)" stroke="#e5e7eb"/>
<text x="239.0" y="432.0" text-anchor="middle" font-size="11" fill="#111827">5</text>
<rect x="260" y="406" width="42" height="42" fill="rgb(235,245,241)" stroke="#e5e7eb"/>
<text x="281.0" y="432.0" text-anchor="middle" font-size="11" fill="#111827">4</text>
<rect x="302" y="406" width="42" height="42" fill="rgb(233,244,240)" stroke="#e5e7eb"/>
<text x="323.0" y="432.0" text-anchor="middle" font-size="11" fill="#111827">6</text>
<rect x="344" y="406" width="42" height="42" fill="rgb(234,245,241)" stroke="#e5e7eb"/>
<text x="365.0" y="432.0" text-anchor="middle" font-size="11" fill="#111827">5</text>
<rect x="386" y="406" width="42" height="42" fill="rgb(235,245,241)" stroke="#e5e7eb"/>
<text x="407.0" y="432.0" text-anchor="middle" font-size="11" fill="#111827">4</text>
<rect x="428" y="406" width="42" height="42" fill="rgb(95,158,121)" stroke="#e5e7eb"/>
<text x="449.0" y="432.0" text-anchor="middle" font-size="11" fill="#ffffff">159</text>
<rect x="470" y="406" width="42" height="42" fill="rgb(237,246,243)" stroke="#e5e7eb"/>
<text x="491.0" y="432.0" text-anchor="middle" font-size="11" fill="#111827">2</text>
<rect x="92" y="448" width="42" height="42" fill="rgb(238,247,244)" stroke="#e5e7eb"/>
<text x="113.0" y="474.0" text-anchor="middle" font-size="11" fill="#111827">1</text>
<rect x="134" y="448" width="42" height="42" fill="rgb(238,247,244)" stroke="#e5e7eb"/>
<text x="155.0" y="474.0" text-anchor="middle" font-size="11" fill="#111827">1</text>
<rect x="176" y="448" width="42" height="42" fill="rgb(239,248,245)" stroke="#e5e7eb"/>
<rect x="218" y="448" width="42" height="42" fill="rgb(235,245,241)" stroke="#e5e7eb"/>
<text x="239.0" y="474.0" text-anchor="middle" font-size="11" fill="#111827">4</text>
<rect x="260" y="448" width="42" height="42" fill="rgb(231,243,238)" stroke="#e5e7eb"/>
<text x="281.0" y="474.0" text-anchor="middle" font-size="11" fill="#111827">8</text>
<rect x="302" y="448" width="42" height="42" fill="rgb(235,245,241)" stroke="#e5e7eb"/>
<text x="323.0" y="474.0" text-anchor="middle" font-size="11" fill="#111827">4</text>
<rect x="344" y="448" width="42" height="42" fill="rgb(239,248,245)" stroke="#e5e7eb"/>
<rect x="386" y="448" width="42" height="42" fill="rgb(234,245,241)" stroke="#e5e7eb"/>
<text x="407.0" y="474.0" text-anchor="middle" font-size="11" fill="#111827">5</text>
<rect x="428" y="448" width="42" height="42" fill="rgb(238,247,244)" stroke="#e5e7eb"/>
<text x="449.0" y="474.0" text-anchor="middle" font-size="11" fill="#111827">1</text>
<rect x="470" y="448" width="42" height="42" fill="rgb(85,152,113)" stroke="#e5e7eb"/>
<text x="491.0" y="474.0" text-anchor="middle" font-size="11" fill="#ffffff">170</text>
</svg>