<svg xmlns="http://www.w3.org/2000/svg" width="760" height="420" viewBox="0 0 760 420">
  <rect width="100%" height="100%" fill="#ffffff"/>
  <text x="380.0" y="28" text-anchor="middle" font-size="20" font-weight="700" fill="#111827">Baseline Training Loss</text>
  <line x1="72" y1="48" x2="72" y2="356" stroke="#9ca3af"/>
  <line x1="72" y1="356" x2="728" y2="356" stroke="#9ca3af"/>
  <text x="20" y="210.0" transform="rotate(-90 20 210.0)" text-anchor="middle" font-size="13" fill="#374151">Loss</text>
  <text x="380.0" y="412" text-anchor="middle" font-size="13" fill="#374151">Epoch</text>
  <text x="62" y="52" text-anchor="end" font-size="12" fill="#4b5563">0.407</text>
  <text x="62" y="360" text-anchor="end" font-size="12" fill="#4b5563">0.043</text>
  <polyline points="72.00,48.00 106.53,227.24 141.05,266.34 175.58,283.63 210.11,296.65 244.63,310.10 279.16,315.48 313.68,321.49 348.21,327.97 382.74,331.57 417.26,332.95 451.79,338.70 486.32,342.63 520.84,343.53 555.37,345.94 589.89,350.12 624.42,351.09 658.95,351.15 693.47,353.85 728.00,356.00" fill="none" stroke="#2563eb" stroke-width="3" stroke-linejoin="round" stroke-linecap="round"/>
  <circle cx="72.00" cy="48.00" r="4" fill="#2563eb" /><circle cx="106.53" cy="227.24" r="4" fill="#2563eb" /><circle cx="141.05" cy="266.34" r="4" fill="#2563eb" /><circle cx="175.58" cy="283.63" r="4" fill="#2563eb" /><circle cx="210.11" cy="296.65" r="4" fill="#2563eb" /><circle cx="244.63" cy="310.10" r="4" fill="#2563eb" /><circle cx="279.16" cy="315.48" r="4" fill="#2563eb" /><circle cx="313.68" cy="321.49" r="4" fill="#2563eb" /><circle cx="348.21" cy="327.97" r="4" fill="#2563eb" /><circle cx="382.74" cy="331.57" r="4" fill="#2563eb" /><circle cx="417.26" cy="332.95" r="4" fill="#2563eb" /><circle cx="451.79" cy="338.70" r="4" fill="#2563eb" /><circle cx="486.32" cy="342.63" r="4" fill="#2563eb" /><circle cx="520.84" cy="343.53" r="4" fill="#2563eb" /><circle cx="555.37" cy="345.94" r="4" fill="#2563eb" /><circle cx="589.89" cy="350.12" r="4" fill="#2563eb" /><circle cx="624.42" cy="351.09" r="4" fill="#2563eb" /><circle cx="658.95" cy="351.15" r="4" fill="#2563eb" /><circle cx="693.47" cy="353.85" r="4" fill="#2563eb" /><circle cx="728.00" cy="356.00" r="4" fill="#2563eb" />
  <text x="72.00" y="38.00" text-anchor="middle" font-size="11" fill="#374151">0.407</text><text x="106.53" y="217.24" text-anchor="middle" font-size="11" fill="#374151">0.195</text><text x="141.05" y="256.34" text-anchor="middle" font-size="11" fill="#374151">0.149</text><text x="175.58" y="273.63" text-anchor="middle" font-size="11" fill="#374151">0.128</text><text x="210.11" y="286.65" text-anchor="middle" font-size="11" fill="#374151">0.113</text><text x="244.63" y="300.10" text-anchor="middle" font-size="11" fill="#374151">0.097</text><text x="279.16" y="305.48" text-anchor="middle" font-size="11" fill="#374151">0.091</text><text x="313.68" y="311.49" text-anchor="middle" font-size="11" fill="#374151">0.084</text><text x="348.21" y="317.97" text-anchor="middle" font-size="11" fill="#374151">0.076</text><text x="382.74" y="321.57" text-anchor="middle" font-size="11" fill="#374151">0.072</text><text x="417.26" y="322.95" text-anchor="middle" font-size="11" fill="#374151">0.070</text><text x="451.79" y="328.70" text-anchor="middle" font-size="11" fill="#374151">0.063</text><text x="486.32" y="332.63" text-anchor="middle" font-size="11" fill="#374151">0.059</text><text x="520.84" y="333.53" text-anchor="middle" font-size="11" fill="#374151">0.058</text><text x="555.37" y="335.94" text-anchor="middle" font-size="11" fill="#374151">0.055</text><text x="589.89" y="340.12" text-anchor="middle" font-size="11" fill="#374151">0.050</text><text x="624.42" y="341.09" text-anchor="middle" font-size="11" fill="#374151">0.049</text><text x="658.95" y="341.15" text-anchor="middle" font-size="11" fill="#374151">0.049</text><text x="693.47" y="343.85" text-anchor="middle" font-size="11" fill="#374151">0.046</text><text x="728.00" y="346.00" text-anchor="middle" font-size="11" fill="#374151">0.043</text>
  <text x="72.00" y="390" text-anchor="middle" font-size="12" fill="#4b5563">1</text><text x="106.53" y="390" text-anchor="middle" font-size="12" fill="#4b5563">2</text><text x="141.05" y="390" text-anchor="middle" font-size="12" fill="#4b5563">3</text><text x="175.58" y="390" text-anchor="middle" font-size="12" fill="#4b5563">4</text><text x="210.11" y="390" text-anchor="middle" font-size="12" fill="#4b5563">5</text><text x="244.63" y="390" text-anchor="middle" font-size="12" fill="#4b5563">6</text><text x="279.16" y="390" text-anchor="middle" font-size="12" fill="#4b5563">7</text><text x="313.68" y="390" text-anchor="middle" font-size="12" fill="#4b5563">8</text><text x="348.21" y="390" text-anchor="middle" font-size="12" fill="#4b5563">9</text><text x="382.74" y="390" text-anchor="middle" font-size="12" fill="#4b5563">10</text><text x="417.26" y="390" text-anchor="middle" font-size="12" fill="#4b5563">11</text><text x="451.79" y="390" text-anchor="middle" font-size="12" fill="#4b5563">12</text><text x="486.32" y="390" text-anchor="middle" font-size="12" fill="#4b5563">13</text><text x="520.84" y="390" text-anchor="middle" font-size="12" fill="#4b5563">14</text><text x="555.37" y="390" text-anchor="middle" font-size="12" fill="#4b5563">15</text><text x="589.89" y="390" text-anchor="middle" font-size="12" fill="#4b5563">16</text><text x="624.42" y="390" text-anchor="middle" font-size="12" fill="#4b5563">17</text><text x="658.95" y="390" text-anchor="middle" font-size="12" fill="#4b5563">18</text><text x="693.47" y="390" text-anchor="middle" font-size="12" fill="#4b5563">19</text><text x="728.00" y="390" text-anchor="middle" font-size="12" fill="#4b5563">20</text>
</svg>
