<svg xmlns="http://www.w3.org/2000/svg" width="760" height="420" viewBox="0 0 760 420">
  <rect width="100%" height="100%" fill="#ffffff"/>
  <text x="380.0" y="28" text-anchor="middle" font-size="20" font-weight="700" fill="#111827">Baseline Training Loss</text>
  <line x1="72" y1="48" x2="72" y2="356" stroke="#9ca3af"/>
  <line x1="72" y1="356" x2="728" y2="356" stroke="#9ca3af"/>
  <text x="20" y="210.0" transform="rotate(-90 20 210.0)" text-anchor="middle" font-size="13" fill="#374151">Loss</text>
  <text x="380.0" y="412" text-anchor="middle" font-size="13" fill="#374151">Epoch</text>
  <text x="62" y="52" text-anchor="end" font-size="12" fill="#4b5563">0.883</text>
  <text x="62" y="360" text-anchor="end" font-size="12" fill="#4b5563">0.209</text>
  <polyline points="72.00,48.00 236.00,275.06 400.00,317.86 564.00,341.58 728.00,356.00" fill="none" stroke="#2563eb" stroke-width="3" stroke-linejoin="round" stroke-linecap="round"/>
  <circle cx="72.00" cy="48.00" r="4" fill="#2563eb" /><circle cx="236.00" cy="275.06" r="4" fill="#2563eb" /><circle cx="400.00" cy="317.86" r="4" fill="#2563eb" /><circle cx="564.00" cy="341.58" r="4" fill="#2563eb" /><circle cx="728.00" cy="356.00" r="4" fill="#2563eb" />
  <text x="72.00" y="38.00" text-anchor="middle" font-size="11" fill="#374151">0.883</text><text x="236.00" y="265.06" text-anchor="middle" font-size="11" fill="#374151">0.386</text><text x="400.00" y="307.86" text-anchor="middle" font-size="11" fill="#374151">0.292</text><text x="564.00" y="331.58" text-anchor="middle" font-size="11" fill="#374151">0.240</text><text x="728.00" y="346.00" text-anchor="middle" font-size="11" fill="#374151">0.209</text>
  <text x="72.00" y="390" text-anchor="middle" font-size="12" fill="#4b5563">1</text><text x="236.00" y="390" text-anchor="middle" font-size="12" fill="#4b5563">2</text><text x="400.00" y="390" text-anchor="middle" font-size="12" fill="#4b5563">3</text><text x="564.00" y="390" text-anchor="middle" font-size="12" fill="#4b5563">4</text><text x="728.00" y="390" text-anchor="middle" font-size="12" fill="#4b5563">5</text>
</svg>
